<svg width="33" height="32" viewBox="0 0 33 32" fill="none" xmlns="http://www.w3.org/2000/svg">
<circle cx="16.5" cy="16" r="16" fill="#363636"/>
<path d="M16.5 5V27" stroke="white" stroke-width="1.5" stroke-linecap="round" stroke-linejoin="round"/>
<path d="M21.5 9H14C13.0717 9 12.1815 9.36875 11.5251 10.0251C10.8687 10.6815 10.5 11.5717 10.5 12.5C10.5 13.4283 10.8687 14.3185 11.5251 14.9749C12.1815 15.6313 13.0717 16 14 16H19C19.9283 16 20.8185 16.3687 21.4749 17.0251C22.1313 17.6815 22.5 18.5717 22.5 19.5C22.5 20.4283 22.1313 21.3185 21.4749 21.9749C20.8185 22.6313 19.9283 23 19 23H10.5" stroke="white" stroke-width="1.5" stroke-linecap="round" stroke-linejoin="round"/>
</svg>
